<svg width="15" height="15" viewBox="0 0 15 15" fill="none" xmlns="http://www.w3.org/2000/svg">
<path d="M13.5929 12.9309L10.0529 9.39092C10.9036 8.36966 11.3278 7.05974 11.2373 5.73368C11.1468 4.40762 10.5485 3.1675 9.56695 2.27131C8.58539 1.37512 7.29609 0.891857 5.96729 0.922049C4.63848 0.952242 3.37247 1.49357 2.43263 2.43342C1.49278 3.37327 0.951449 4.63928 0.921256 5.96808C0.891063 7.29689 1.37433 8.58618 2.27052 9.56775C3.16671 10.5493 4.40683 11.1476 5.73289 11.2381C7.05895 11.3286 8.36886 10.9044 9.39012 10.0537L12.9301 13.5937L13.5929 12.9309ZM1.87418 6.09373C1.87418 5.25934 2.12161 4.44369 2.58517 3.74992C3.04873 3.05615 3.70761 2.51542 4.47849 2.19611C5.24936 1.8768 6.09761 1.79326 6.91597 1.95604C7.73433 2.11882 8.48604 2.52062 9.07604 3.11062C9.66604 3.70062 10.0678 4.45233 10.2306 5.27069C10.3934 6.08905 10.3099 6.9373 9.99055 7.70817C9.67124 8.47905 9.13052 9.13793 8.43675 9.60149C7.74298 10.0651 6.92732 10.3125 6.09293 10.3125C4.97443 10.3112 3.9021 9.86637 3.1112 9.07547C2.3203 8.28456 1.87543 7.21223 1.87418 6.09373Z" fill="#7C7C7C"/>
</svg>
