<svg width="90" height="52" viewBox="0 0 90 52" fill="none" xmlns="http://www.w3.org/2000/svg">
<path d="M28.6152 1.28809V10.9131H27.6377V1.28809H28.6152ZM26.6602 1.49219V10.4297H25.6934V5.53125H24.2002V4.69336H25.6934V1.49219H26.6602ZM23.2549 3.97363C23.2549 5.61719 23.9209 7.26074 25.2744 8.04492L24.6621 8.79688C23.7437 8.24902 23.1099 7.27686 22.7822 6.11133C22.4331 7.36816 21.7778 8.43701 20.8379 9.02246L20.2148 8.25977C21.5791 7.43262 22.2773 5.68164 22.2773 3.97363V3.2002H20.5049V2.37305H24.9092V3.2002H23.2549V3.97363ZM38.6377 6.71289V7.54004H34.7275V10.9023H33.7285V7.54004H29.8613V6.71289H38.6377ZM37.8105 1.85742V2.67383H34.835C34.8511 3.86621 36.3335 4.92969 38.1543 5.17676L37.7783 5.98242C36.1992 5.73535 34.835 4.95654 34.2549 3.85547C33.6587 4.95654 32.2998 5.73535 30.7422 5.98242L30.3555 5.17676C32.1548 4.92969 33.6372 3.86621 33.6748 2.67383H30.6777V1.85742H37.8105ZM45.5234 3.7373C45.5234 5.49902 46.5117 7.25 47.9834 7.91602L47.3604 8.73242C46.2646 8.18457 45.4429 7.09424 45.0186 5.77832C44.5942 7.16406 43.751 8.33496 42.6445 8.91504L42 8.08789C43.4932 7.37891 44.4922 5.52051 44.4922 3.7373V2.09375H45.5234V3.7373ZM50.0781 1.28809V10.9346H49.0684V5.31641H46.9199V4.48926H49.0684V1.28809H50.0781ZM59.6602 1.28809V10.9131H58.6289V1.28809H59.6602ZM51.4961 5.82129C52.7529 5.82129 54.187 5.81055 55.6211 5.73535C55.8574 4.45166 55.9004 3.49561 55.9219 2.83496H52.334V2.00781H56.9316V2.44824C56.9209 3.08203 56.9209 4.16162 56.6631 5.6709C57.1089 5.64404 57.5547 5.60645 57.9844 5.56348L58.0488 6.32617C57.0981 6.45508 56.1152 6.53564 55.1484 6.58398V10.3545H54.1279V6.62695C53.2524 6.65918 52.4092 6.66992 51.6357 6.66992L51.4961 5.82129ZM69.876 8.89355V9.76367H61.0674V8.89355H64.9346V6.8418H61.8408V6.03613H63.2803V3.00684H61.8193V2.17969H69.0703V3.00684H67.5986V6.03613H69.0381V6.8418H65.9443V8.89355H69.876ZM64.29 6.03613H66.5996V3.00684H64.29V6.03613ZM74.1084 3.7373C74.0977 5.49902 75.1611 7.26074 76.6543 7.92676L76.042 8.73242C74.9355 8.20605 74.0601 7.12646 73.6143 5.81055C73.1631 7.21777 72.2769 8.3833 71.1221 8.94727L70.499 8.08789C72.0137 7.41113 73.0771 5.57422 73.0771 3.7373V2.09375H74.1084V3.7373ZM78.5449 1.28809V10.9346H77.5244V1.28809H78.5449Z" fill="#757575"/>
<path d="M23.083 21.6104C24.5332 21.6211 25.5967 22.5127 25.6074 23.7695C25.5967 25.0371 24.5332 25.918 23.083 25.918C21.6221 25.918 20.5479 25.0371 20.5479 23.7695C20.5479 22.5127 21.6221 21.6211 23.083 21.6104ZM23.083 22.4697C22.1914 22.459 21.5361 22.9854 21.5469 23.7695C21.5361 24.5645 22.1914 25.0908 23.083 25.0908C23.9639 25.0908 24.6191 24.5645 24.6191 23.7695C24.6191 22.9854 23.9639 22.459 23.083 22.4697ZM28.3359 21.2881V26.1865H27.3154V21.2881H28.3359ZM28.3359 26.627V29.0547H23.0293V29.9785H28.6582V30.7949H22.041V28.292H27.3262V27.4434H22.0088V26.627H28.3359ZM33.3633 22.6738C33.3525 24.0059 34.2656 25.2197 35.748 25.7139L35.2324 26.5195C34.1206 26.1274 33.2827 25.3433 32.8477 24.3389C32.418 25.4185 31.5747 26.2725 30.4307 26.6807L29.915 25.8857C31.4189 25.3486 32.3213 24.0488 32.3213 22.6738V21.75H33.3633V22.6738ZM37.8428 27.5293V30.9131H36.8223V28.3564H31.3223V27.5293H37.8428ZM37.8428 21.2881V27.0674H36.8223V21.2881H37.8428Z" fill="#757575"/>
<path d="M28.3789 40.2988V47.6357H27.3584V45.6484H25.8115V44.832H27.3584V43.6396H25.8115V42.8018H27.3584V40.2988H28.3789ZM25.7793 41.416V42.2432H20.3652V41.416H22.6211V40.2881H23.6309V41.416H25.7793ZM23.1152 42.7051C24.415 42.7051 25.3281 43.457 25.3389 44.5527C25.3281 45.6592 24.415 46.4111 23.1152 46.4111C21.8154 46.4111 20.9023 45.6592 20.9023 44.5527C20.9023 43.457 21.8154 42.7051 23.1152 42.7051ZM23.1152 43.5C22.3633 43.5107 21.8584 43.9189 21.8584 44.5527C21.8584 45.208 22.3633 45.6162 23.1152 45.6162C23.8564 45.6162 24.3721 45.208 24.3828 44.5527C24.3721 43.9189 23.8564 43.5107 23.1152 43.5ZM28.5938 48.8818V49.709H22.0947V46.9912H23.126V48.8818H28.5938ZM38.1758 40.2881V49.9131H37.1982V44.9717H36.0488V49.4404H35.082V40.4707H36.0488V44.1123H37.1982V40.2881H38.1758ZM32.7832 42.834C32.7832 44.5635 33.4385 46.1318 34.835 46.8516L34.2334 47.6357C33.2881 47.1255 32.6543 46.2285 32.3105 45.1113C31.9829 46.3789 31.3438 47.3887 30.3662 47.9688L29.7324 47.1953C31.1396 46.4004 31.7949 44.7461 31.7949 42.834V42.2109H29.9902V41.3838H34.459V42.2109H32.7832V42.834ZM47.3496 40.2988V47.292H46.3291V40.2988H47.3496ZM47.6396 48.8818V49.709H41.0547V46.583H42.0859V48.8818H47.6396ZM42.1289 40.9434C43.5791 40.9434 44.6855 41.9316 44.6855 43.3281C44.6855 44.7461 43.5791 45.7236 42.1289 45.7236C40.6787 45.7236 39.5615 44.7461 39.5615 43.3281C39.5615 41.9316 40.6787 40.9434 42.1289 40.9434ZM42.1289 41.835C41.2266 41.835 40.5605 42.4473 40.5605 43.3281C40.5605 44.2305 41.2266 44.832 42.1289 44.832C43.0098 44.832 43.6865 44.2305 43.6865 43.3281C43.6865 42.4473 43.0098 41.835 42.1289 41.835ZM56.8779 40.2988V47.5928H55.8574V46.6689H53.9238V45.9492H55.8574V40.2988H56.8779ZM57.1143 48.8818V49.709H50.1641V46.8838H51.1738V48.8818H57.1143ZM48.832 44.6924C50.6152 44.6816 53.0107 44.6602 55.0625 44.4023L55.127 45.1328C54.3052 45.2671 53.4404 45.3584 52.5918 45.4121V47.292H51.5713V45.4658C50.6367 45.5088 49.7397 45.5142 48.9609 45.5088L48.832 44.6924ZM51.9795 40.6641C53.3867 40.6641 54.3643 41.3408 54.3643 42.3613C54.3643 43.3818 53.3867 44.0371 51.9795 44.0371C50.5508 44.0371 49.584 43.3818 49.584 42.3613C49.584 41.3408 50.5508 40.6641 51.9795 40.6641ZM51.9795 41.4268C51.1201 41.416 50.54 41.7812 50.5508 42.3613C50.54 42.9307 51.1201 43.2852 51.9795 43.2852C52.8066 43.2852 53.3867 42.9307 53.3975 42.3613C53.3867 41.7812 52.8066 41.416 51.9795 41.4268ZM61.2285 47.4854V46.5293L64.666 41.2227H66.127V46.4863H67.1904V47.4854H66.127V49H65.0098V47.4854H61.2285ZM62.4746 46.4863H65.0098V42.6299H64.9238L62.4746 46.4219V46.4863ZM71.3584 40.8574L68.8555 50.1709H67.835L70.3379 40.8574H71.3584ZM74.8389 49.1074C73.3672 49.1074 72.2607 48.2051 72.207 46.9697H73.3564C73.4209 47.6357 74.0547 48.1191 74.8389 48.1191C75.7842 48.1191 76.4609 47.4316 76.4609 46.5078C76.4609 45.5625 75.7627 44.875 74.7852 44.8643C74.1621 44.8643 73.6895 45.0684 73.4209 45.5518H72.3037L72.8086 41.2227H77.2129V42.2324H73.7861L73.5283 44.4131H73.6035C73.9258 44.1016 74.4736 43.8867 75.0645 43.8867C76.5254 43.8867 77.6104 44.9717 77.6104 46.4756C77.6104 48.0117 76.4609 49.1074 74.8389 49.1074Z" fill="#757575"/>
<path d="M6.99935 1.16667C4.74185 1.16667 2.91602 2.9925 2.91602 5.25C2.91602 8.3125 6.99935 12.8333 6.99935 12.8333C6.99935 12.8333 11.0827 8.3125 11.0827 5.25C11.0827 2.9925 9.25685 1.16667 6.99935 1.16667ZM6.99935 6.70833C6.61258 6.70833 6.24164 6.55469 5.96815 6.2812C5.69466 6.00771 5.54102 5.63678 5.54102 5.25C5.54102 4.86323 5.69466 4.49229 5.96815 4.2188C6.24164 3.94531 6.61258 3.79167 6.99935 3.79167C7.38612 3.79167 7.75706 3.94531 8.03055 4.2188C8.30404 4.49229 8.45768 4.86323 8.45768 5.25C8.45768 5.63678 8.30404 6.00771 8.03055 6.2812C7.75706 6.55469 7.38612 6.70833 6.99935 6.70833Z" fill="#757575"/>
<path fill-rule="evenodd" clip-rule="evenodd" d="M2.732 30.268C3.465 31 4.643 31 7 31C9.357 31 10.5355 31 11.2675 30.2675C12 29.536 12 28.357 12 26C12 23.643 12 22.4645 11.2675 21.732C10.536 21 9.357 21 7 21C4.643 21 3.4645 21 2.732 21.732C2 22.465 2 23.643 2 26C2 28.357 2 29.536 2.732 30.268ZM10.375 28C10.375 28.0995 10.3355 28.1948 10.2652 28.2652C10.1948 28.3355 10.0995 28.375 10 28.375H4C3.90054 28.375 3.80516 28.3355 3.73483 28.2652C3.66451 28.1948 3.625 28.0995 3.625 28C3.625 27.9005 3.66451 27.8052 3.73483 27.7348C3.80516 27.6645 3.90054 27.625 4 27.625H10C10.0995 27.625 10.1948 27.6645 10.2652 27.7348C10.3355 27.8052 10.375 27.9005 10.375 28ZM10 26.375C10.0995 26.375 10.1948 26.3355 10.2652 26.2652C10.3355 26.1948 10.375 26.0995 10.375 26C10.375 25.9005 10.3355 25.8052 10.2652 25.7348C10.1948 25.6645 10.0995 25.625 10 25.625H4C3.90054 25.625 3.80516 25.6645 3.73483 25.7348C3.66451 25.8052 3.625 25.9005 3.625 26C3.625 26.0995 3.66451 26.1948 3.73483 26.2652C3.80516 26.3355 3.90054 26.375 4 26.375H10ZM10.375 24C10.375 24.0995 10.3355 24.1948 10.2652 24.2652C10.1948 24.3355 10.0995 24.375 10 24.375H4C3.90054 24.375 3.80516 24.3355 3.73483 24.2652C3.66451 24.1948 3.625 24.0995 3.625 24C3.625 23.9005 3.66451 23.8052 3.73483 23.7348C3.80516 23.6645 3.90054 23.625 4 23.625H10C10.0995 23.625 10.1948 23.6645 10.2652 23.7348C10.3355 23.8052 10.375 23.9005 10.375 24Z" fill="#757575"/>
<path d="M7.00065 44C6.35898 44 5.80968 43.7715 5.35273 43.3146C4.89579 42.8576 4.66732 42.3083 4.66732 41.6667C4.66732 41.025 4.89579 40.4757 5.35273 40.0188C5.80968 39.5618 6.35898 39.3333 7.00065 39.3333C7.64232 39.3333 8.19162 39.5618 8.64857 40.0188C9.10551 40.4757 9.33398 41.025 9.33398 41.6667C9.33398 42.3083 9.10551 42.8576 8.64857 43.3146C8.19162 43.7715 7.64232 44 7.00065 44ZM2.33398 48.6667V47.0333C2.33398 46.7028 2.41915 46.3991 2.58948 46.1222C2.75982 45.8453 2.98576 45.6337 3.26732 45.4875C3.8701 45.1861 4.4826 44.9602 5.10482 44.8097C5.72704 44.6592 6.35898 44.5837 7.00065 44.5833C7.64232 44.5829 8.27426 44.6584 8.89648 44.8097C9.51871 44.9609 10.1312 45.1869 10.734 45.4875C11.0159 45.6333 11.2421 45.8449 11.4124 46.1222C11.5827 46.3994 11.6677 46.7032 11.6673 47.0333V48.6667H2.33398Z" fill="#757575"/>
</svg>
