<svg width="18" height="12" viewBox="0 0 18 12" fill="none" xmlns="http://www.w3.org/2000/svg">
<g clip-path="url(#clip0_102_7)">
<path fill-rule="evenodd" clip-rule="evenodd" d="M5.99953 11.25C5.90007 11.25 5.80469 11.2105 5.73436 11.1402C5.66403 11.0698 5.62453 10.9745 5.62453 10.875L5.62453 2.03025L3.26503 4.3905C3.19461 4.46092 3.09911 4.50047 2.99953 4.50047C2.89994 4.50047 2.80444 4.46092 2.73403 4.3905C2.66361 4.32009 2.62405 4.22458 2.62405 4.125C2.62405 4.02542 2.66361 3.92992 2.73403 3.8595L5.73403 0.859501C5.76886 0.824579 5.81024 0.796872 5.8558 0.777967C5.90136 0.759062 5.9502 0.749331 5.99953 0.749331C6.04885 0.749331 6.09769 0.759062 6.14325 0.777967C6.18881 0.796872 6.23019 0.824579 6.26503 0.859501L9.26503 3.8595C9.33544 3.92992 9.375 4.02542 9.375 4.125C9.375 4.22458 9.33544 4.32009 9.26503 4.3905C9.19461 4.46092 9.09911 4.50047 8.99953 4.50047C8.89995 4.50047 8.80444 4.46092 8.73403 4.3905L6.37453 2.03025L6.37453 10.875C6.37453 10.9745 6.33502 11.0698 6.26469 11.1402C6.19436 11.2105 6.09898 11.25 5.99953 11.25Z" fill="black"/>
</g>
<path fill-rule="evenodd" clip-rule="evenodd" d="M12.0005 0.75C12.0999 0.75 12.1953 0.789509 12.2656 0.859835C12.336 0.930161 12.3755 1.02554 12.3755 1.125L12.3755 9.96975L14.735 7.6095C14.8054 7.53908 14.9009 7.49953 15.0005 7.49953C15.1001 7.49953 15.1956 7.53908 15.266 7.6095C15.3364 7.67991 15.3759 7.77542 15.3759 7.875C15.3759 7.97458 15.3364 8.07008 15.266 8.1405L12.266 11.1405C12.2311 11.1754 12.1898 11.2031 12.1442 11.222C12.0986 11.2409 12.0498 11.2507 12.0005 11.2507C11.9511 11.2507 11.9023 11.2409 11.8567 11.222C11.8112 11.2031 11.7698 11.1754 11.735 11.1405L8.73497 8.1405C8.66456 8.07008 8.625 7.97458 8.625 7.875C8.625 7.77542 8.66456 7.67991 8.73497 7.6095C8.80539 7.53908 8.90089 7.49953 9.00047 7.49953C9.10006 7.49953 9.19556 7.53908 9.26597 7.6095L11.6255 9.96975L11.6255 1.125C11.6255 1.02554 11.665 0.930161 11.7353 0.859835C11.8056 0.789509 11.901 0.75 12.0005 0.75Z" fill="black"/>
<defs>
<clipPath id="clip0_102_7">
<rect width="12" height="12" fill="white" transform="translate(12 12) rotate(-180)"/>
</clipPath>
</defs>
</svg>
