<svg width="84" height="52" viewBox="0 0 84 52" fill="none" xmlns="http://www.w3.org/2000/svg">
<path d="M23.8242 4.7373C23.8242 6.49902 24.8125 8.25 26.2842 8.91602L25.6611 9.73242C24.5654 9.18457 23.7437 8.09424 23.3193 6.77832C22.895 8.16406 22.0518 9.33496 20.9453 9.91504L20.3008 9.08789C21.7939 8.37891 22.793 6.52051 22.793 4.7373V3.09375H23.8242V4.7373ZM28.3789 2.28809V11.9346H27.3691V6.31641H25.2207V5.48926H27.3691V2.28809H28.3789ZM34.2441 2.39551C36.4141 2.39551 37.6816 2.98633 37.6816 4.0498C37.6816 5.12402 36.4141 5.71484 34.2441 5.71484C32.0742 5.71484 30.8066 5.12402 30.8066 4.0498C30.8066 2.98633 32.0742 2.39551 34.2441 2.39551ZM34.2441 3.1582C32.708 3.16895 31.8594 3.48047 31.8701 4.0498C31.8594 4.65137 32.708 4.95215 34.2441 4.95215C35.7803 4.95215 36.6289 4.65137 36.6289 4.0498C36.6289 3.48047 35.7803 3.16895 34.2441 3.1582ZM38.6377 6.28418V7.08984H34.749V7.91699H37.5312V10.1729H31.9238V11.0322H37.7998V11.8164H30.9248V9.43164H36.5215V8.67969H30.9141V7.91699H33.7285V7.08984H29.8613V6.28418H38.6377ZM45.4697 3.72754C45.4697 5.08105 46.3398 6.28418 47.8008 6.75684L47.2422 7.55176C46.1841 7.17041 45.4053 6.4292 44.9863 5.46777C44.5674 6.56885 43.7295 7.42285 42.5693 7.8418L42.0215 7.02539C43.5576 6.49902 44.4492 5.2207 44.46 3.77051V2.8252H45.4697V3.72754ZM50.0781 2.28809V7.9707H49.0576V5.08105H47.0273V4.24316H49.0576V2.28809H50.0781ZM46.8555 8.23926C48.875 8.23926 50.1104 8.90527 50.1104 10.0762C50.1104 11.2363 48.875 11.9023 46.8555 11.8916C44.8359 11.9023 43.5898 11.2363 43.6006 10.0762C43.5898 8.90527 44.8359 8.23926 46.8555 8.23926ZM46.8555 9.03418C45.4482 9.03418 44.6104 9.41016 44.6104 10.0762C44.6104 10.7207 45.4482 11.0859 46.8555 11.0859C48.2627 11.0859 49.1006 10.7207 49.1006 10.0762C49.1006 9.41016 48.2627 9.03418 46.8555 9.03418ZM60.3477 6.97168V7.78809H51.5605V6.97168H55.46V5.95117H52.6562V2.72852H59.2627V3.53418H53.666V5.13477H59.3271V5.95117H56.4482V6.97168H60.3477ZM55.9434 8.41113C58.0166 8.41113 59.2627 9.04492 59.2627 10.1621C59.2627 11.2793 58.0166 11.9023 55.9434 11.9131C53.8594 11.9023 52.6025 11.2793 52.6025 10.1621C52.6025 9.04492 53.8594 8.41113 55.9434 8.41113ZM55.9434 9.20605C54.4717 9.20605 53.6338 9.5498 53.6338 10.1621C53.6338 10.7744 54.4717 11.1182 55.9434 11.1074C57.3936 11.1182 58.2422 10.7744 58.2422 10.1621C58.2422 9.5498 57.3936 9.20605 55.9434 9.20605ZM68.7266 2.88965V3.73828C68.7266 4.65137 68.7266 5.63965 68.458 7.01465H69.8438V7.85254H65.9443V11.9238H64.9131V7.85254H61.0674V7.01465H67.4268C67.7168 5.64502 67.7168 4.63525 67.7168 3.73828V3.72754H62.1416V2.88965H68.7266Z" fill="#757575"/>
<path d="M29.1631 28.8291V29.667H20.3545V28.8291H29.1631ZM22.3848 21.9541V23.6836H27.1113V21.9541H28.1211V27.0029H21.3643V21.9541H22.3848ZM22.3848 26.1973H27.1113V24.4893H22.3848V26.1973ZM34.5557 21.9541V24.8545H31.2686V26.2402C32.9766 26.2349 34.0562 26.1865 35.3076 25.9717L35.4043 26.8096C34.0508 27.0244 32.8906 27.0674 31.0107 27.0674H30.248V24.0488H33.5459V22.7705H30.2266V21.9541H34.5557ZM37.8857 21.2988V28.3672H36.8652V24.6074H35.1357V23.7373H36.8652V21.2988H37.8857ZM38.165 29.8818V30.709H31.5693V27.8193H32.5898V29.8818H38.165ZM47.3389 21.2881V30.9131H46.3184V21.2881H47.3389ZM42.9883 24.3818C42.9883 25.918 44.0088 27.4863 45.502 28.1201L44.9434 28.9043C43.8369 28.4209 42.9507 27.4219 42.5049 26.208C42.0698 27.4917 41.1997 28.5605 40.0771 29.0654L39.5078 28.2812C41.001 27.6152 41.9893 25.9932 41.9893 24.3818V23.748H39.7979V22.9316H41.9785V21.4814H42.9883V22.9316H45.1475V23.748H42.9883V24.3818Z" fill="#757575"/>
<path d="M28.3789 40.2988V47.6357H27.3584V45.6484H25.8115V44.832H27.3584V43.6396H25.8115V42.8018H27.3584V40.2988H28.3789ZM25.7793 41.416V42.2432H20.3652V41.416H22.6211V40.2881H23.6309V41.416H25.7793ZM23.1152 42.7051C24.415 42.7051 25.3281 43.457 25.3389 44.5527C25.3281 45.6592 24.415 46.4111 23.1152 46.4111C21.8154 46.4111 20.9023 45.6592 20.9023 44.5527C20.9023 43.457 21.8154 42.7051 23.1152 42.7051ZM23.1152 43.5C22.3633 43.5107 21.8584 43.9189 21.8584 44.5527C21.8584 45.208 22.3633 45.6162 23.1152 45.6162C23.8564 45.6162 24.3721 45.208 24.3828 44.5527C24.3721 43.9189 23.8564 43.5107 23.1152 43.5ZM28.5938 48.8818V49.709H22.0947V46.9912H23.126V48.8818H28.5938ZM38.1758 40.2881V49.9131H37.1982V44.9717H36.0488V49.4404H35.082V40.4707H36.0488V44.1123H37.1982V40.2881H38.1758ZM32.7832 42.834C32.7832 44.5635 33.4385 46.1318 34.835 46.8516L34.2334 47.6357C33.2881 47.1255 32.6543 46.2285 32.3105 45.1113C31.9829 46.3789 31.3438 47.3887 30.3662 47.9688L29.7324 47.1953C31.1396 46.4004 31.7949 44.7461 31.7949 42.834V42.2109H29.9902V41.3838H34.459V42.2109H32.7832V42.834ZM47.3496 40.2988V47.292H46.3291V40.2988H47.3496ZM47.6396 48.8818V49.709H41.0547V46.583H42.0859V48.8818H47.6396ZM42.1289 40.9434C43.5791 40.9434 44.6855 41.9316 44.6855 43.3281C44.6855 44.7461 43.5791 45.7236 42.1289 45.7236C40.6787 45.7236 39.5615 44.7461 39.5615 43.3281C39.5615 41.9316 40.6787 40.9434 42.1289 40.9434ZM42.1289 41.835C41.2266 41.835 40.5605 42.4473 40.5605 43.3281C40.5605 44.2305 41.2266 44.832 42.1289 44.832C43.0098 44.832 43.6865 44.2305 43.6865 43.3281C43.6865 42.4473 43.0098 41.835 42.1289 41.835ZM56.8779 40.2988V47.5928H55.8574V46.6689H53.9238V45.9492H55.8574V40.2988H56.8779ZM57.1143 48.8818V49.709H50.1641V46.8838H51.1738V48.8818H57.1143ZM48.832 44.6924C50.6152 44.6816 53.0107 44.6602 55.0625 44.4023L55.127 45.1328C54.3052 45.2671 53.4404 45.3584 52.5918 45.4121V47.292H51.5713V45.4658C50.6367 45.5088 49.7397 45.5142 48.9609 45.5088L48.832 44.6924ZM51.9795 40.6641C53.3867 40.6641 54.3643 41.3408 54.3643 42.3613C54.3643 43.3818 53.3867 44.0371 51.9795 44.0371C50.5508 44.0371 49.584 43.3818 49.584 42.3613C49.584 41.3408 50.5508 40.6641 51.9795 40.6641ZM51.9795 41.4268C51.1201 41.416 50.54 41.7812 50.5508 42.3613C50.54 42.9307 51.1201 43.2852 51.9795 43.2852C52.8066 43.2852 53.3867 42.9307 53.3975 42.3613C53.3867 41.7812 52.8066 41.416 51.9795 41.4268ZM61.4004 49V48.1406L64.0967 45.4229C64.9453 44.5312 65.375 44.0371 65.375 43.3604C65.375 42.5977 64.752 42.1035 63.9355 42.1035C63.0762 42.1035 62.5176 42.6514 62.5176 43.4785H61.4004C61.3896 42.0605 62.4746 41.1152 63.957 41.1152C65.4609 41.1152 66.4922 42.0605 66.5029 43.3281C66.4922 44.1982 66.084 44.8857 64.623 46.3252L63.0439 47.9258V47.9902H66.6318V49H61.4004ZM70.918 40.8574L68.415 50.1709H67.3945L69.8975 40.8574H70.918ZM71.584 47.4854V46.5293L75.0215 41.2227H76.4824V46.4863H77.5459V47.4854H76.4824V49H75.3652V47.4854H71.584ZM72.8301 46.4863H75.3652V42.6299H75.2793L72.8301 46.4219V46.4863Z" fill="#757575"/>
<path d="M6.99935 1.16666C4.74185 1.16666 2.91602 2.99249 2.91602 5.24999C2.91602 8.31249 6.99935 12.8333 6.99935 12.8333C6.99935 12.8333 11.0827 8.31249 11.0827 5.24999C11.0827 2.99249 9.25685 1.16666 6.99935 1.16666ZM6.99935 6.70832C6.61258 6.70832 6.24164 6.55468 5.96815 6.28119C5.69466 6.0077 5.54102 5.63676 5.54102 5.24999C5.54102 4.86322 5.69466 4.49228 5.96815 4.21879C6.24164 3.9453 6.61258 3.79166 6.99935 3.79166C7.38612 3.79166 7.75706 3.9453 8.03055 4.21879C8.30404 4.49228 8.45768 4.86322 8.45768 5.24999C8.45768 5.63676 8.30404 6.0077 8.03055 6.28119C7.75706 6.55468 7.38612 6.70832 6.99935 6.70832Z" fill="#757575"/>
<path fill-rule="evenodd" clip-rule="evenodd" d="M2.732 30.268C3.465 31 4.643 31 7 31C9.357 31 10.5355 31 11.2675 30.2675C12 29.536 12 28.357 12 26C12 23.643 12 22.4645 11.2675 21.732C10.536 21 9.357 21 7 21C4.643 21 3.4645 21 2.732 21.732C2 22.465 2 23.643 2 26C2 28.357 2 29.536 2.732 30.268ZM10.375 28C10.375 28.0995 10.3355 28.1948 10.2652 28.2652C10.1948 28.3355 10.0995 28.375 10 28.375H4C3.90054 28.375 3.80516 28.3355 3.73483 28.2652C3.66451 28.1948 3.625 28.0995 3.625 28C3.625 27.9005 3.66451 27.8052 3.73483 27.7348C3.80516 27.6645 3.90054 27.625 4 27.625H10C10.0995 27.625 10.1948 27.6645 10.2652 27.7348C10.3355 27.8052 10.375 27.9005 10.375 28ZM10 26.375C10.0995 26.375 10.1948 26.3355 10.2652 26.2652C10.3355 26.1948 10.375 26.0995 10.375 26C10.375 25.9005 10.3355 25.8052 10.2652 25.7348C10.1948 25.6645 10.0995 25.625 10 25.625H4C3.90054 25.625 3.80516 25.6645 3.73483 25.7348C3.66451 25.8052 3.625 25.9005 3.625 26C3.625 26.0995 3.66451 26.1948 3.73483 26.2652C3.80516 26.3355 3.90054 26.375 4 26.375H10ZM10.375 24C10.375 24.0995 10.3355 24.1948 10.2652 24.2652C10.1948 24.3355 10.0995 24.375 10 24.375H4C3.90054 24.375 3.80516 24.3355 3.73483 24.2652C3.66451 24.1948 3.625 24.0995 3.625 24C3.625 23.9005 3.66451 23.8052 3.73483 23.7348C3.80516 23.6645 3.90054 23.625 4 23.625H10C10.0995 23.625 10.1948 23.6645 10.2652 23.7348C10.3355 23.8052 10.375 23.9005 10.375 24Z" fill="#757575"/>
<path d="M7.00065 44C6.35898 44 5.80968 43.7715 5.35273 43.3146C4.89579 42.8576 4.66732 42.3083 4.66732 41.6667C4.66732 41.025 4.89579 40.4757 5.35273 40.0187C5.80968 39.5618 6.35898 39.3333 7.00065 39.3333C7.64232 39.3333 8.19162 39.5618 8.64857 40.0187C9.10551 40.4757 9.33398 41.025 9.33398 41.6667C9.33398 42.3083 9.10551 42.8576 8.64857 43.3146C8.19162 43.7715 7.64232 44 7.00065 44ZM2.33398 48.6667V47.0333C2.33398 46.7028 2.41915 46.399 2.58948 46.1222C2.75982 45.8453 2.98576 45.6337 3.26732 45.4875C3.8701 45.1861 4.4826 44.9602 5.10482 44.8097C5.72704 44.6592 6.35898 44.5837 7.00065 44.5833C7.64232 44.5829 8.27426 44.6584 8.89648 44.8097C9.51871 44.9609 10.1312 45.1869 10.734 45.4875C11.0159 45.6333 11.2421 45.8449 11.4124 46.1222C11.5827 46.3994 11.6677 46.7032 11.6673 47.0333V48.6667H2.33398Z" fill="#757575"/>
</svg>
