<svg width="60" height="53" viewBox="0 0 60 53" fill="none" xmlns="http://www.w3.org/2000/svg">
<path d="M16.9524 4.27494C16.3274 3.65516 15.4797 3.30698 14.5959 3.30698C13.7121 3.30698 12.8644 3.65516 12.2394 4.27494L4.30661 12.14C3.68175 12.76 3.33072 13.6007 3.33072 14.4774C3.33072 15.354 3.68175 16.1948 4.30661 16.8147L13.046 25.4765C13.3552 25.7842 13.7224 26.0283 14.1267 26.1951C14.5311 26.3619 14.9646 26.448 15.4025 26.4485H20.8188C21.5497 26.4485 22.2717 26.6075 22.934 26.9143C23.5962 27.221 24.1826 27.668 24.6519 28.2239L41.5107 48.1857C42.4567 49.0728 43.7144 49.559 45.0161 49.5407C46.3179 49.5224 47.5612 49.0012 48.4816 48.0879C49.402 47.1746 49.9268 45.9412 49.9446 44.6499C49.9624 43.3587 49.4717 42.1115 48.5769 41.1736L28.4583 24.4517C27.8973 23.9866 27.446 23.4051 27.1361 22.7482C26.8263 22.0913 26.6655 21.375 26.6651 20.6497V15.2774C26.6649 14.4007 26.3136 13.5599 25.6885 12.9401L16.9524 4.27494ZM9.87956 1.93758C10.4986 1.32331 11.2336 0.836025 12.0426 0.50357C12.8515 0.171115 13.7186 0 14.5942 0C15.4699 0 16.3369 0.171115 17.1459 0.50357C17.9549 0.836025 18.6899 1.32331 19.3089 1.93758L28.045 10.5994C28.6648 11.214 29.1564 11.9439 29.4915 12.7471C29.8267 13.5504 29.9988 14.4114 29.9982 15.2807V20.653C29.9973 21.0482 30.1392 21.4305 30.3981 21.7308L32.5247 19.7902C33.7579 18.6661 34.3779 16.8709 34.6712 14.765C35.2611 10.5465 37.5043 5.9511 40.0841 3.39223C42.272 1.22212 45.2394 0.00295661 48.3336 0.00295661C51.4277 0.00295661 54.3951 1.22212 56.583 3.39223C58.7709 5.56235 60 8.50566 60 11.5747C60 14.6437 58.7709 17.587 56.583 19.7571C53.9998 22.316 49.3668 24.5409 45.1104 25.1261C42.9873 25.417 41.174 26.0319 40.0441 27.2519L38.7242 28.6735L50.8367 38.737L50.8867 38.7899C51.6826 39.5524 52.3174 40.4644 52.7541 41.4727C53.1908 42.4811 53.4207 43.5657 53.4303 44.6631C53.4399 45.7605 53.2291 46.8489 52.8101 47.8646C52.3911 48.8804 51.7724 49.8032 50.99 50.5792C50.2076 51.3552 49.2772 51.969 48.2532 52.3845C47.2291 52.8001 46.1319 53.0092 45.0254 52.9997C43.919 52.9901 42.8256 52.7621 41.809 52.329C40.7923 51.8958 39.8729 51.2662 39.1042 50.4768L39.0509 50.4272L29.2815 38.8561L18.0723 50.9363L18.0457 50.9628C16.7952 52.2026 15.0995 52.8989 13.3315 52.8986C11.5634 52.8983 9.86794 52.2014 8.61798 50.9611C7.36801 49.7208 6.66596 48.0389 6.66628 46.2852C6.66659 44.5315 7.36924 42.8498 8.61964 41.61L8.64298 41.5868L21.4654 29.8835C21.2607 29.7982 21.0408 29.7544 20.8188 29.7545H15.4025C13.6347 29.7542 11.9394 29.0573 10.6895 27.8172L1.95344 19.1521C1.33414 18.5381 0.84287 17.809 0.507693 17.0067C0.172516 16.2043 0 15.3442 0 14.4757C0 13.6072 0.172516 12.7472 0.507693 11.9448C0.84287 11.1424 1.33414 10.4133 1.95344 9.79933L9.87956 1.93758ZM36.1644 26.5477L37.591 25.0104C39.5208 22.9276 42.2973 22.1705 44.6538 21.8465C48.2736 21.3506 52.2133 19.41 54.2231 17.4164C55.7748 15.8643 56.6433 13.7658 56.6388 11.58C56.6343 9.39425 55.7571 7.29926 54.1991 5.75347C52.6411 4.20768 50.5292 3.33697 48.3255 3.33188C46.1218 3.32678 44.0059 4.18772 42.4406 5.72629C40.4308 7.71983 38.4742 11.6276 37.9743 15.2146C37.6443 17.552 36.881 20.3059 34.7812 22.2201L32.9613 23.883L36.1644 26.5477ZM23.7419 32.2936L10.9528 43.9705C10.3607 44.5968 10.0374 45.4271 10.0515 46.2856C10.0655 47.1441 10.4158 47.9635 11.0281 48.5705C11.6405 49.1774 12.4668 49.5242 13.3324 49.5376C14.1979 49.5509 15.0348 49.2297 15.6658 48.6419L27.1217 36.2939L23.7419 32.2936ZM11.1761 13.7071C10.8632 13.3971 10.4389 13.2231 9.9967 13.2235C9.55446 13.2238 9.13046 13.3983 8.81796 13.7087C8.50547 14.0191 8.33009 14.4399 8.3304 14.8786C8.33072 15.3172 8.5067 15.7378 8.81963 16.0477L14.6526 21.8333C14.8075 21.987 14.9915 22.1089 15.1939 22.1921C15.3964 22.2752 15.6133 22.3181 15.8325 22.3181C16.0516 22.3181 16.2686 22.2752 16.471 22.1921C16.6735 22.1089 16.8574 21.987 17.0124 21.8333C17.1673 21.6796 17.2903 21.4971 17.3741 21.2963C17.458 21.0955 17.5011 20.8803 17.5011 20.663C17.5011 20.4456 17.458 20.2304 17.3741 20.0296C17.2903 19.8288 17.1673 19.6463 17.0124 19.4926L11.1761 13.7071ZM13.8193 8.74801C13.9741 8.59407 14.158 8.47193 14.3605 8.3886C14.5629 8.30527 14.78 8.26237 14.9992 8.26237C15.2184 8.26237 15.4355 8.30527 15.6379 8.3886C15.8404 8.47193 16.0243 8.59407 16.1791 8.74801L22.012 14.5336C22.325 14.844 22.5008 15.2649 22.5008 15.7039C22.5008 16.1429 22.325 16.5638 22.012 16.8742C21.6991 17.1846 21.2747 17.359 20.8321 17.359C20.3896 17.359 19.9651 17.1846 19.6522 16.8742L13.8193 11.0887C13.6641 10.9351 13.5409 10.7527 13.4569 10.5519C13.3729 10.3511 13.3297 10.1358 13.3297 9.91834C13.3297 9.70091 13.3729 9.48562 13.4569 9.28479C13.5409 9.08397 13.6641 8.90156 13.8193 8.74801ZM43.3306 13.2244C43.3306 12.786 43.155 12.3655 42.8424 12.0555C42.5299 11.7455 42.106 11.5714 41.664 11.5714C41.222 11.5714 40.7981 11.7455 40.4856 12.0555C40.173 12.3655 39.9975 12.786 39.9975 13.2244C39.9975 14.978 40.6998 16.6598 41.95 17.8998C43.2001 19.1398 44.8957 19.8364 46.6637 19.8364C47.1057 19.8364 47.5296 19.6623 47.8421 19.3523C48.1546 19.0423 48.3302 18.6218 48.3302 18.1834C48.3302 17.745 48.1546 17.3246 47.8421 17.0146C47.5296 16.7046 47.1057 16.5304 46.6637 16.5304C45.7797 16.5304 44.9319 16.1821 44.3068 15.5621C43.6817 14.9421 43.3306 14.1012 43.3306 13.2244Z" fill="#F85454"/>
</svg>
