<svg width="26" height="23" viewBox="0 0 26 23" fill="none" xmlns="http://www.w3.org/2000/svg">
<path d="M7.34604 1.85516C7.07518 1.5862 6.70788 1.43511 6.32489 1.43511C5.9419 1.43511 5.57459 1.5862 5.30374 1.85516L1.8662 5.2683C1.59543 5.53735 1.44331 5.9022 1.44331 6.28263C1.44331 6.66306 1.59543 7.02791 1.8662 7.29696L5.65327 11.0559C5.78724 11.1893 5.94638 11.2953 6.12159 11.3677C6.29681 11.4401 6.48466 11.4774 6.67442 11.4777H9.02148C9.3382 11.4777 9.65107 11.5467 9.93805 11.6798C10.225 11.8129 10.4791 12.0069 10.6825 12.2481L17.988 20.9108C18.3979 21.2958 18.9429 21.5067 19.507 21.4988C20.0711 21.4909 20.6099 21.2647 21.0087 20.8683C21.4075 20.472 21.635 19.9367 21.6427 19.3764C21.6504 18.816 21.4378 18.2748 21.05 17.8678L12.3319 10.6111C12.0888 10.4093 11.8932 10.1569 11.759 9.87184C11.6247 9.58677 11.555 9.27592 11.5549 8.9612V6.62983C11.5548 6.24935 11.4026 5.88449 11.1317 5.6155L7.34604 1.85516ZM4.28114 0.840835C4.5494 0.574265 4.86789 0.362803 5.21844 0.21853C5.56899 0.0742575 5.94472 0 6.32417 0C6.70361 0 7.07934 0.0742575 7.42989 0.21853C7.78044 0.362803 8.09894 0.574265 8.36719 0.840835L12.1528 4.59973C12.4214 4.86646 12.6344 5.18318 12.7797 5.53178C12.9249 5.88037 12.9995 6.25399 12.9992 6.63126V8.96264C12.9988 9.13411 13.0603 9.30003 13.1725 9.43035L14.094 8.58818C14.6284 8.10039 14.8971 7.32135 15.0242 6.40745C15.2798 4.57678 16.2519 2.58255 17.3698 1.4721C18.3179 0.530352 19.6037 0.00128306 20.9445 0.00128306C22.2853 0.00128306 23.5712 0.530352 24.5193 1.4721C25.4674 2.41385 26 3.69113 26 5.02297C26 6.3548 25.4674 7.63209 24.5193 8.57384C23.3999 9.68429 21.3923 10.6498 19.5479 10.9038C18.6278 11.03 17.8421 11.2969 17.3525 11.8263L16.7805 12.4432L22.0292 16.8104L22.0509 16.8334C22.3958 17.1642 22.6709 17.56 22.8601 17.9976C23.0493 18.4352 23.149 18.9059 23.1531 19.3821C23.1573 19.8583 23.0659 20.3306 22.8844 20.7714C22.7028 21.2122 22.4347 21.6127 22.0957 21.9495C21.7566 22.2862 21.3535 22.5526 20.9097 22.7329C20.4659 22.9133 19.9905 23.004 19.511 22.9999C19.0316 22.9957 18.5578 22.8968 18.1172 22.7088C17.6767 22.5208 17.2782 22.2476 16.9451 21.905L16.922 21.8835L12.6887 16.8621L7.83134 22.1044L7.81978 22.1159C7.27794 22.6539 6.54312 22.9561 5.77697 22.956C5.01082 22.9559 4.27611 22.6534 3.73446 22.1152C3.1928 21.577 2.88858 20.8471 2.88872 20.086C2.88885 19.325 3.19334 18.5952 3.73518 18.0572L3.74529 18.0471L9.30168 12.9683C9.21297 12.9313 9.1177 12.9123 9.02148 12.9123H6.67442C5.90835 12.9122 5.17372 12.6098 4.63212 12.0716L0.846491 8.31129C0.578127 8.04482 0.365244 7.72845 0.22 7.38025C0.0747569 7.03204 0 6.65882 0 6.28191C0 5.905 0.0747569 5.53178 0.22 5.18358C0.365244 4.83537 0.578127 4.519 0.846491 4.25254L4.28114 0.840835ZM15.6712 11.5207L16.2894 10.8536C17.1257 9.94971 18.3288 9.62116 19.35 9.48056C20.9185 9.26536 22.6258 8.42319 23.4967 7.55807C24.1691 6.88452 24.5454 5.97383 24.5435 5.02529C24.5415 4.07675 24.1614 3.1676 23.4863 2.49679C22.8111 1.82597 21.896 1.44812 20.9411 1.44591C19.9861 1.4437 19.0692 1.81731 18.3909 2.48499C17.52 3.35012 16.6722 5.04592 16.4555 6.60257C16.3125 7.6169 15.9818 8.81199 15.0718 9.64268L14.2832 10.3643L15.6712 11.5207ZM10.2882 14.0142L4.74622 19.0815C4.48962 19.3533 4.34955 19.7136 4.35564 20.0862C4.36173 20.4588 4.51351 20.8144 4.77885 21.0778C5.0442 21.3411 5.40229 21.4916 5.77737 21.4974C6.15244 21.5032 6.51507 21.3638 6.78852 21.1088L11.7527 15.7502L10.2882 14.0142ZM4.84299 5.94835C4.70739 5.81384 4.52354 5.73835 4.3319 5.73848C4.14027 5.73862 3.95653 5.81436 3.82112 5.94906C3.6857 6.08376 3.60971 6.26638 3.60984 6.45673C3.60998 6.64709 3.68623 6.8296 3.82184 6.96411L6.34944 9.47482C6.41659 9.54152 6.4963 9.59443 6.58403 9.63052C6.67176 9.66662 6.76578 9.68519 6.86074 9.68519C6.9557 9.68519 7.04972 9.66662 7.13745 9.63052C7.22518 9.59443 7.30489 9.54152 7.37204 9.47482C7.43918 9.40813 7.49244 9.32895 7.52878 9.24181C7.56512 9.15466 7.58382 9.06126 7.58382 8.96694C7.58382 8.87262 7.56512 8.77922 7.52878 8.69208C7.49244 8.60494 7.43918 8.52576 7.37204 8.45906L4.84299 5.94835ZM5.98836 3.7963C6.05544 3.7295 6.13513 3.6765 6.22287 3.64034C6.31061 3.60417 6.40466 3.58556 6.49965 3.58556C6.59464 3.58556 6.6887 3.60417 6.77644 3.64034C6.86418 3.6765 6.94387 3.7295 7.01095 3.7963L9.53855 6.30702C9.67416 6.44172 9.75034 6.62441 9.75034 6.8149C9.75034 7.00539 9.67416 7.18808 9.53855 7.32278C9.40295 7.45748 9.21903 7.53315 9.02726 7.53315C8.83548 7.53315 8.65156 7.45748 8.51596 7.32278L5.98836 4.81207C5.9211 4.74543 5.86774 4.66627 5.83134 4.57912C5.79493 4.49197 5.77619 4.39854 5.77619 4.30419C5.77619 4.20983 5.79493 4.1164 5.83134 4.02925C5.86774 3.9421 5.9211 3.86294 5.98836 3.7963ZM18.7766 5.73888C18.7766 5.54863 18.7005 5.36617 18.5651 5.23164C18.4296 5.09711 18.2459 5.02153 18.0544 5.02153C17.8629 5.02153 17.6792 5.09711 17.5438 5.23164C17.4083 5.36617 17.3322 5.54863 17.3322 5.73888C17.3322 6.49989 17.6366 7.22973 18.1783 7.76784C18.72 8.30596 19.4548 8.60827 20.2209 8.60827C20.4125 8.60827 20.5961 8.53269 20.7316 8.39816C20.867 8.26363 20.9431 8.08117 20.9431 7.89092C20.9431 7.70067 20.867 7.51821 20.7316 7.38368C20.5961 7.24915 20.4125 7.17357 20.2209 7.17357C19.8379 7.17357 19.4705 7.02242 19.1996 6.75336C18.9288 6.4843 18.7766 6.11938 18.7766 5.73888Z" fill="white"/>
</svg>
