<svg width="10" height="10" viewBox="0 0 10 10" fill="none" xmlns="http://www.w3.org/2000/svg">
<path fill-rule="evenodd" clip-rule="evenodd" d="M0.732 9.268C1.465 10 2.643 10 5 10C7.357 10 8.5355 10 9.2675 9.2675C10 8.536 10 7.357 10 5C10 2.643 10 1.4645 9.2675 0.732C8.536 0 7.357 0 5 0C2.643 0 1.4645 0 0.732 0.732C0 1.465 0 2.643 0 5C0 7.357 0 8.536 0.732 9.268ZM8.375 7C8.375 7.09946 8.33549 7.19484 8.26517 7.26517C8.19484 7.33549 8.09946 7.375 8 7.375H2C1.90054 7.375 1.80516 7.33549 1.73483 7.26517C1.66451 7.19484 1.625 7.09946 1.625 7C1.625 6.90054 1.66451 6.80516 1.73483 6.73484C1.80516 6.66451 1.90054 6.625 2 6.625H8C8.09946 6.625 8.19484 6.66451 8.26517 6.73484C8.33549 6.80516 8.375 6.90054 8.375 7ZM8 5.375C8.09946 5.375 8.19484 5.33549 8.26517 5.26516C8.33549 5.19484 8.375 5.09946 8.375 5C8.375 4.90054 8.33549 4.80516 8.26517 4.73484C8.19484 4.66451 8.09946 4.625 8 4.625H2C1.90054 4.625 1.80516 4.66451 1.73483 4.73484C1.66451 4.80516 1.625 4.90054 1.625 5C1.625 5.09946 1.66451 5.19484 1.73483 5.26516C1.80516 5.33549 1.90054 5.375 2 5.375H8ZM8.375 3C8.375 3.09946 8.33549 3.19484 8.26517 3.26516C8.19484 3.33549 8.09946 3.375 8 3.375H2C1.90054 3.375 1.80516 3.33549 1.73483 3.26516C1.66451 3.19484 1.625 3.09946 1.625 3C1.625 2.90054 1.66451 2.80516 1.73483 2.73483C1.80516 2.66451 1.90054 2.625 2 2.625H8C8.09946 2.625 8.19484 2.66451 8.26517 2.73483C8.33549 2.80516 8.375 2.90054 8.375 3Z" fill="#757575"/>
</svg>
