<svg width="19" height="19" viewBox="0 0 19 19" fill="none" xmlns="http://www.w3.org/2000/svg">
<path d="M5.43399 13.7392L7.10694 13.2566L17.1798 3.06373C17.2592 2.98232 17.3035 2.87292 17.3029 2.75917C17.3024 2.64541 17.2571 2.53643 17.1769 2.45577L16.5737 1.8459C16.5347 1.80585 16.4881 1.77396 16.4367 1.7521C16.3852 1.73024 16.33 1.71885 16.2741 1.71858C16.2182 1.71832 16.1628 1.72919 16.1112 1.75056C16.0595 1.77193 16.0126 1.80337 15.9733 1.84305L5.92704 12.0094L5.43399 13.7392ZM17.7678 0.637575L18.3711 1.24839C19.2033 2.09099 19.2109 3.45036 18.3863 4.28441L8.00659 14.7889L4.43079 15.8186C4.21248 15.8797 3.97884 15.8517 3.78115 15.7408C3.58345 15.6298 3.43785 15.445 3.37629 15.2268C3.33049 15.07 3.32983 14.9034 3.37439 14.7461L4.41464 11.0984L14.7668 0.621426C14.9636 0.423227 15.198 0.266205 15.4561 0.159517C15.7143 0.0528298 15.9911 -0.00138778 16.2705 2.69906e-05C16.5498 0.00144176 16.8261 0.0584605 17.0832 0.167758C17.3403 0.277055 17.573 0.437393 17.7678 0.637575ZM6.82479 1.73286C7.29599 1.73286 7.67789 2.11949 7.67789 2.59636C7.67864 2.70909 7.65716 2.82086 7.61468 2.92528C7.57221 3.0297 7.50956 3.12473 7.43033 3.20493C7.3511 3.28512 7.25684 3.34892 7.15294 3.39266C7.04903 3.4364 6.93752 3.45924 6.82479 3.45986H3.41239C2.47 3.45986 1.7062 4.23311 1.7062 5.18591V15.546C1.7062 16.4997 2.47 17.273 3.41239 17.273H13.6496C14.592 17.273 15.3567 16.4997 15.3567 15.546V12.093C15.3567 11.6161 15.7386 11.2295 16.2098 11.2295C16.681 11.2295 17.0629 11.6161 17.0629 12.0939V15.546C17.0629 17.4535 15.5344 19 13.6496 19H3.41239C1.5276 19 0 17.4535 0 15.546V5.18591C0 3.27937 1.5276 1.73286 3.41239 1.73286H6.82479Z" fill="white"/>
</svg>
