<svg width="61" height="33" viewBox="0 0 61 33" fill="none" xmlns="http://www.w3.org/2000/svg">
<mask id="path-1-outside-1_26_99" maskUnits="userSpaceOnUse" x="-1" y="-1" width="62" height="34" fill="black">
<rect fill="white" x="-1" y="-1" width="62" height="34"/>
<path d="M28.0498 8.02734C28.2451 8.02734 28.416 8.07617 28.5625 8.22266C28.6846 8.36914 28.7578 8.51562 28.7578 8.71094C28.7578 8.90625 28.6846 9.07715 28.5625 9.19922C28.416 9.3457 28.2451 9.41895 28.0498 9.41895H23.8994V15.8398C23.8994 16.0352 23.8262 16.2061 23.6797 16.3281C23.5576 16.4746 23.3867 16.5479 23.1914 16.5479C22.9961 16.5479 22.8252 16.4746 22.7031 16.3281C22.5566 16.2061 22.4834 16.0352 22.4834 15.8398V0.922852C22.4834 0.727539 22.5566 0.556641 22.7031 0.410156C22.8252 0.288086 22.9961 0.214844 23.1914 0.214844C23.3867 0.214844 23.5576 0.288086 23.6797 0.410156C23.8262 0.556641 23.8994 0.727539 23.8994 0.922852V8.02734H28.0498ZM0.657227 0.947266C0.657227 0.751953 0.706055 0.581055 0.852539 0.43457C0.974609 0.3125 1.12109 0.239258 1.31641 0.239258H19.6514V3.75488C19.6514 7.14844 18.4062 10.127 15.9404 12.6904C13.3525 15.1562 10.374 16.4014 7.00488 16.4014H0.803711C0.608398 16.4014 0.4375 16.3281 0.291016 16.2061C0.168945 16.0596 0.0957031 15.8887 0.0957031 15.6934C0.0957031 15.498 0.168945 15.3516 0.291016 15.2051C0.4375 15.083 0.608398 15.0098 0.803711 15.0098H7.00488C10.0078 15.0098 12.6689 13.9111 14.9639 11.7383C17.1611 9.41895 18.2598 6.75781 18.2598 3.75488V1.63086H1.31641C1.12109 1.63086 0.974609 1.55762 0.852539 1.43555C0.706055 1.28906 0.657227 1.11816 0.657227 0.947266ZM14.5244 18.7207C10.1543 18.7207 6.61426 20.5518 3.92871 24.2139H23.1914C23.3867 24.2139 23.5576 24.2627 23.6797 24.4092C23.8262 24.5557 23.8994 24.7021 23.8994 24.8975C23.8994 25.0684 23.8262 25.2393 23.6797 25.3613C23.5576 25.5078 23.3867 25.5811 23.1914 25.5811H3.0498C2.14648 27.2412 1.63379 29.0723 1.51172 31.0742H23.1914C23.3867 31.0742 23.5576 31.1475 23.6797 31.2695C23.8262 31.416 23.8994 31.5625 23.8994 31.7578C23.8994 31.9531 23.8262 32.124 23.6797 32.2461C23.5576 32.3682 23.3867 32.4414 23.1914 32.4414H0.0957031V31.7578C0.0957031 29.1699 0.730469 26.7773 2 24.6289C2 24.6289 2 24.6045 2.02441 24.6045V24.5801C5.02734 19.7461 9.20215 17.3291 14.5244 17.3291H23.1914C23.3867 17.3291 23.5576 17.4023 23.6797 17.5488C23.8262 17.6709 23.8994 17.8418 23.8994 18.0127C23.8994 18.208 23.8262 18.3789 23.6797 18.501C23.5576 18.6475 23.3867 18.7207 23.1914 18.7207H14.5244ZM49.1885 18.7939C53.3633 19.2578 56.1221 21.5039 57.4648 25.5078C58.0264 27.583 58.7588 29.3164 59.6377 30.7568L60.0527 31.416C60.1504 31.5625 60.1748 31.7334 60.1504 31.9287C60.1016 32.0996 60.0039 32.2217 59.833 32.3438C59.7109 32.417 59.6133 32.4414 59.4912 32.4414C59.2471 32.4414 59.0762 32.3438 58.9053 32.124L58.4902 31.4648C57.5381 29.9268 56.7568 28.0713 56.1709 25.874C54.999 22.4072 52.6064 20.4785 48.9688 20.1367C48.0654 23.8721 45.8926 26.7285 42.4746 28.6572L35.6631 32.3682C35.5654 32.417 35.4678 32.4414 35.3457 32.4414C35.1016 32.4414 34.9062 32.3193 34.7598 32.0752C34.6621 31.9043 34.6621 31.7334 34.7109 31.5625C34.7598 31.3916 34.8574 31.2695 35.0283 31.1719L41.8398 27.4854C45.917 24.9219 47.9434 21.5039 47.9434 17.207C47.9434 17.0117 48.0166 16.8652 48.1387 16.7188C48.2852 16.5967 48.4316 16.5234 48.627 16.5234C48.8223 16.5234 48.9688 16.5967 49.1152 16.7188C49.2373 16.8652 49.3105 17.0117 49.3105 17.207C49.3105 17.7441 49.2617 18.2568 49.1885 18.7939ZM60.4434 0.898438V15.4248C60.4434 15.6201 60.3701 15.7666 60.248 15.9131C60.1016 16.0352 59.9551 16.1084 59.7598 16.1084C59.5889 16.1084 59.418 16.0352 59.2959 15.9131C59.1494 15.7666 59.1006 15.6201 59.1006 15.4248V0.898438C59.1006 0.703125 59.1494 0.556641 59.2959 0.410156C59.418 0.288086 59.5889 0.214844 59.7598 0.214844C59.9551 0.214844 60.1016 0.288086 60.248 0.410156C60.3701 0.556641 60.4434 0.703125 60.4434 0.898438ZM39.7646 16.1084C38.2266 16.1084 36.9082 15.5469 35.8096 14.4482C34.7109 13.374 34.1738 12.0557 34.1738 10.4932C34.1738 7.68555 35.1748 5.26855 37.1768 3.2666C39.1543 1.26465 41.5713 0.263672 44.3789 0.263672H48.2363C49.7744 0.263672 51.0928 0.825195 52.1914 1.92383C53.29 2.99805 53.8271 4.34082 53.8271 5.87891C53.8271 8.68652 52.8262 11.1035 50.8486 13.1055C48.8467 15.1074 46.4297 16.1084 43.6221 16.1084H39.7646ZM44.3789 1.63086C41.9375 1.63086 39.8623 2.48535 38.1289 4.21875C36.3955 5.95215 35.5166 8.05176 35.5166 10.4932C35.5166 11.665 35.9316 12.666 36.7617 13.4961C37.5918 14.3262 38.5928 14.7412 39.7646 14.7412H43.6221C46.0635 14.7412 48.1631 13.8867 49.8965 12.1533C51.6299 10.4199 52.4844 8.32031 52.4844 5.87891C52.4844 4.70703 52.0693 3.70605 51.2393 2.87598C50.4092 2.0459 49.4082 1.63086 48.2363 1.63086H44.3789Z"/>
</mask>
<path d="M28.0498 8.02734C28.2451 8.02734 28.416 8.07617 28.5625 8.22266C28.6846 8.36914 28.7578 8.51562 28.7578 8.71094C28.7578 8.90625 28.6846 9.07715 28.5625 9.19922C28.416 9.3457 28.2451 9.41895 28.0498 9.41895H23.8994V15.8398C23.8994 16.0352 23.8262 16.2061 23.6797 16.3281C23.5576 16.4746 23.3867 16.5479 23.1914 16.5479C22.9961 16.5479 22.8252 16.4746 22.7031 16.3281C22.5566 16.2061 22.4834 16.0352 22.4834 15.8398V0.922852C22.4834 0.727539 22.5566 0.556641 22.7031 0.410156C22.8252 0.288086 22.9961 0.214844 23.1914 0.214844C23.3867 0.214844 23.5576 0.288086 23.6797 0.410156C23.8262 0.556641 23.8994 0.727539 23.8994 0.922852V8.02734H28.0498ZM0.657227 0.947266C0.657227 0.751953 0.706055 0.581055 0.852539 0.43457C0.974609 0.3125 1.12109 0.239258 1.31641 0.239258H19.6514V3.75488C19.6514 7.14844 18.4062 10.127 15.9404 12.6904C13.3525 15.1562 10.374 16.4014 7.00488 16.4014H0.803711C0.608398 16.4014 0.4375 16.3281 0.291016 16.2061C0.168945 16.0596 0.0957031 15.8887 0.0957031 15.6934C0.0957031 15.498 0.168945 15.3516 0.291016 15.2051C0.4375 15.083 0.608398 15.0098 0.803711 15.0098H7.00488C10.0078 15.0098 12.6689 13.9111 14.9639 11.7383C17.1611 9.41895 18.2598 6.75781 18.2598 3.75488V1.63086H1.31641C1.12109 1.63086 0.974609 1.55762 0.852539 1.43555C0.706055 1.28906 0.657227 1.11816 0.657227 0.947266ZM14.5244 18.7207C10.1543 18.7207 6.61426 20.5518 3.92871 24.2139H23.1914C23.3867 24.2139 23.5576 24.2627 23.6797 24.4092C23.8262 24.5557 23.8994 24.7021 23.8994 24.8975C23.8994 25.0684 23.8262 25.2393 23.6797 25.3613C23.5576 25.5078 23.3867 25.5811 23.1914 25.5811H3.0498C2.14648 27.2412 1.63379 29.0723 1.51172 31.0742H23.1914C23.3867 31.0742 23.5576 31.1475 23.6797 31.2695C23.8262 31.416 23.8994 31.5625 23.8994 31.7578C23.8994 31.9531 23.8262 32.124 23.6797 32.2461C23.5576 32.3682 23.3867 32.4414 23.1914 32.4414H0.0957031V31.7578C0.0957031 29.1699 0.730469 26.7773 2 24.6289C2 24.6289 2 24.6045 2.02441 24.6045V24.5801C5.02734 19.7461 9.20215 17.3291 14.5244 17.3291H23.1914C23.3867 17.3291 23.5576 17.4023 23.6797 17.5488C23.8262 17.6709 23.8994 17.8418 23.8994 18.0127C23.8994 18.208 23.8262 18.3789 23.6797 18.501C23.5576 18.6475 23.3867 18.7207 23.1914 18.7207H14.5244ZM49.1885 18.7939C53.3633 19.2578 56.1221 21.5039 57.4648 25.5078C58.0264 27.583 58.7588 29.3164 59.6377 30.7568L60.0527 31.416C60.1504 31.5625 60.1748 31.7334 60.1504 31.9287C60.1016 32.0996 60.0039 32.2217 59.833 32.3438C59.7109 32.417 59.6133 32.4414 59.4912 32.4414C59.2471 32.4414 59.0762 32.3438 58.9053 32.124L58.4902 31.4648C57.5381 29.9268 56.7568 28.0713 56.1709 25.874C54.999 22.4072 52.6064 20.4785 48.9688 20.1367C48.0654 23.8721 45.8926 26.7285 42.4746 28.6572L35.6631 32.3682C35.5654 32.417 35.4678 32.4414 35.3457 32.4414C35.1016 32.4414 34.9062 32.3193 34.7598 32.0752C34.6621 31.9043 34.6621 31.7334 34.7109 31.5625C34.7598 31.3916 34.8574 31.2695 35.0283 31.1719L41.8398 27.4854C45.917 24.9219 47.9434 21.5039 47.9434 17.207C47.9434 17.0117 48.0166 16.8652 48.1387 16.7188C48.2852 16.5967 48.4316 16.5234 48.627 16.5234C48.8223 16.5234 48.9688 16.5967 49.1152 16.7188C49.2373 16.8652 49.3105 17.0117 49.3105 17.207C49.3105 17.7441 49.2617 18.2568 49.1885 18.7939ZM60.4434 0.898438V15.4248C60.4434 15.6201 60.3701 15.7666 60.248 15.9131C60.1016 16.0352 59.9551 16.1084 59.7598 16.1084C59.5889 16.1084 59.418 16.0352 59.2959 15.9131C59.1494 15.7666 59.1006 15.6201 59.1006 15.4248V0.898438C59.1006 0.703125 59.1494 0.556641 59.2959 0.410156C59.418 0.288086 59.5889 0.214844 59.7598 0.214844C59.9551 0.214844 60.1016 0.288086 60.248 0.410156C60.3701 0.556641 60.4434 0.703125 60.4434 0.898438ZM39.7646 16.1084C38.2266 16.1084 36.9082 15.5469 35.8096 14.4482C34.7109 13.374 34.1738 12.0557 34.1738 10.4932C34.1738 7.68555 35.1748 5.26855 37.1768 3.2666C39.1543 1.26465 41.5713 0.263672 44.3789 0.263672H48.2363C49.7744 0.263672 51.0928 0.825195 52.1914 1.92383C53.29 2.99805 53.8271 4.34082 53.8271 5.87891C53.8271 8.68652 52.8262 11.1035 50.8486 13.1055C48.8467 15.1074 46.4297 16.1084 43.6221 16.1084H39.7646ZM44.3789 1.63086C41.9375 1.63086 39.8623 2.48535 38.1289 4.21875C36.3955 5.95215 35.5166 8.05176 35.5166 10.4932C35.5166 11.665 35.9316 12.666 36.7617 13.4961C37.5918 14.3262 38.5928 14.7412 39.7646 14.7412H43.6221C46.0635 14.7412 48.1631 13.8867 49.8965 12.1533C51.6299 10.4199 52.4844 8.32031 52.4844 5.87891C52.4844 4.70703 52.0693 3.70605 51.2393 2.87598C50.4092 2.0459 49.4082 1.63086 48.2363 1.63086H44.3789Z" fill="#F85454"/>
<path d="M28.5625 8.22266L28.9466 7.90256L28.9321 7.88514L28.9161 7.8691L28.5625 8.22266ZM23.8994 9.41895V8.91895H23.3994V9.41895H23.8994ZM23.6797 16.3281L23.3596 15.944L23.3247 15.9731L23.2956 16.008L23.6797 16.3281ZM22.7031 16.3281L23.0872 16.008L23.0581 15.9731L23.0232 15.944L22.7031 16.3281ZM23.8994 8.02734H23.3994V8.52734H23.8994V8.02734ZM19.6514 0.239258H20.1514V-0.260742H19.6514V0.239258ZM15.9404 12.6904L16.2853 13.0524L16.2932 13.0449L16.3008 13.0371L15.9404 12.6904ZM0.291016 16.2061L-0.093095 16.5261L-0.0639957 16.5611L-0.0290766 16.5902L0.291016 16.2061ZM0.291016 15.2051L-0.0290766 14.821L-0.0639957 14.8501L-0.093095 14.885L0.291016 15.2051ZM14.9639 11.7383L15.3076 12.1014L15.3175 12.092L15.3268 12.0822L14.9639 11.7383ZM18.2598 1.63086H18.7598V1.13086H18.2598V1.63086ZM3.92871 24.2139L3.52551 23.9182L2.94201 24.7139H3.92871V24.2139ZM23.6797 24.4092L23.2956 24.7293L23.3101 24.7467L23.3261 24.7627L23.6797 24.4092ZM23.6797 25.3613L23.3596 24.9772L23.3247 25.0063L23.2956 25.0412L23.6797 25.3613ZM3.0498 25.5811V25.0811H2.75264L2.61061 25.3421L3.0498 25.5811ZM1.51172 31.0742L1.01265 31.0438L0.980302 31.5742H1.51172V31.0742ZM23.6797 32.2461L23.3596 31.862L23.3422 31.8765L23.3261 31.8925L23.6797 32.2461ZM0.0957031 32.4414H-0.404297V32.9414H0.0957031V32.4414ZM2 24.6289L2.43046 24.8833L2.5 24.7656V24.6289H2ZM2.02441 24.6045V25.1045H2.52441V24.6045H2.02441ZM2.02441 24.5801L1.59969 24.3162L1.52441 24.4374V24.5801H2.02441ZM23.6797 17.5488L23.2956 17.8689L23.3247 17.9038L23.3596 17.9329L23.6797 17.5488ZM23.6797 18.501L23.3596 18.1169L23.3247 18.146L23.2956 18.1809L23.6797 18.501ZM28.0498 8.52734C28.1065 8.52734 28.1383 8.53451 28.1563 8.54094C28.1712 8.54627 28.1874 8.5547 28.2089 8.57621L28.9161 7.8691C28.652 7.60503 28.3397 7.52734 28.0498 7.52734V8.52734ZM28.1784 8.54275C28.2191 8.59155 28.2368 8.62286 28.2454 8.64331C28.2527 8.66036 28.2578 8.6795 28.2578 8.71094H29.2578C29.2578 8.36392 29.1178 8.10802 28.9466 7.90256L28.1784 8.54275ZM28.2578 8.71094C28.2578 8.77787 28.2343 8.82031 28.2089 8.84567L28.9161 9.55277C29.1348 9.33398 29.2578 9.03463 29.2578 8.71094H28.2578ZM28.2089 8.84567C28.1499 8.90469 28.1038 8.91895 28.0498 8.91895V9.91895C28.3864 9.91895 28.6821 9.78671 28.9161 9.55277L28.2089 8.84567ZM28.0498 8.91895H23.8994V9.91895H28.0498V8.91895ZM23.3994 9.41895V15.8398H24.3994V9.41895H23.3994ZM23.3994 15.8398C23.3994 15.9017 23.3811 15.9261 23.3596 15.944L23.9998 16.7122C24.2712 16.486 24.3994 16.1687 24.3994 15.8398H23.3994ZM23.2956 16.008C23.2776 16.0296 23.2532 16.0479 23.1914 16.0479V17.0479C23.5202 17.0479 23.8376 16.9197 24.0638 16.6482L23.2956 16.008ZM23.1914 16.0479C23.1296 16.0479 23.1052 16.0296 23.0872 16.008L22.319 16.6482C22.5452 16.9197 22.8626 17.0479 23.1914 17.0479V16.0479ZM23.0232 15.944C23.0017 15.9261 22.9834 15.9017 22.9834 15.8398H21.9834C21.9834 16.1687 22.1116 16.486 22.383 16.7122L23.0232 15.944ZM22.9834 15.8398V0.922852H21.9834V15.8398H22.9834ZM22.9834 0.922852C22.9834 0.868816 22.9976 0.822738 23.0567 0.76371L22.3496 0.0566029C22.1156 0.290543 21.9834 0.586262 21.9834 0.922852H22.9834ZM23.0567 0.76371C23.082 0.738358 23.1245 0.714844 23.1914 0.714844V-0.285156C22.8677 -0.285156 22.5684 -0.162186 22.3496 0.0566029L23.0567 0.76371ZM23.1914 0.714844C23.2583 0.714844 23.3008 0.738358 23.3261 0.76371L24.0332 0.0566029C23.8145 -0.162186 23.5151 -0.285156 23.1914 -0.285156V0.714844ZM23.3261 0.76371C23.3852 0.822738 23.3994 0.868816 23.3994 0.922852H24.3994C24.3994 0.586262 24.2672 0.290543 24.0332 0.0566029L23.3261 0.76371ZM23.3994 0.922852V8.02734H24.3994V0.922852H23.3994ZM23.8994 8.52734H28.0498V7.52734H23.8994V8.52734ZM1.15723 0.947266C1.15723 0.890617 1.16439 0.858781 1.17082 0.840776C1.17615 0.825861 1.18458 0.809635 1.20609 0.788124L0.498986 0.0810169C0.234917 0.345086 0.157227 0.657324 0.157227 0.947266H1.15723ZM1.20609 0.788124C1.23131 0.762906 1.24835 0.753205 1.25838 0.748795C1.26724 0.744893 1.28362 0.739258 1.31641 0.739258V-0.260742C0.973165 -0.260742 0.703405 -0.123402 0.498986 0.0810169L1.20609 0.788124ZM1.31641 0.739258H19.6514V-0.260742H1.31641V0.739258ZM19.1514 0.239258V3.75488H20.1514V0.239258H19.1514ZM19.1514 3.75488C19.1514 7.01124 17.962 9.86759 15.5801 12.3438L16.3008 13.0371C18.8505 10.3863 20.1514 7.28564 20.1514 3.75488H19.1514ZM15.5955 12.3284C13.0934 14.7125 10.236 15.9014 7.00488 15.9014V16.9014C10.512 16.9014 13.6117 15.6 16.2853 13.0524L15.5955 12.3284ZM7.00488 15.9014H0.803711V16.9014H7.00488V15.9014ZM0.803711 15.9014C0.743771 15.9014 0.682967 15.8818 0.611108 15.8219L-0.0290766 16.5902C0.192033 16.7744 0.473026 16.9014 0.803711 16.9014V15.9014ZM0.675126 15.886C0.615244 15.8141 0.595703 15.7533 0.595703 15.6934H-0.404297C-0.404297 16.024 -0.277353 16.305 -0.093095 16.5261L0.675126 15.886ZM0.595703 15.6934C0.595703 15.6619 0.600851 15.6428 0.608067 15.6257C0.616718 15.6053 0.634455 15.574 0.675126 15.5252L-0.093095 14.885C-0.264307 15.0904 -0.404297 15.3463 -0.404297 15.6934H0.595703ZM0.611108 15.5892C0.682967 15.5293 0.743771 15.5098 0.803711 15.5098V14.5098C0.473026 14.5098 0.192033 14.6367 -0.0290766 14.821L0.611108 15.5892ZM0.803711 15.5098H7.00488V14.5098H0.803711V15.5098ZM7.00488 15.5098C10.1437 15.5098 12.9258 14.3565 15.3076 12.1014L14.6201 11.3752C12.4121 13.4658 9.87191 14.5098 7.00488 14.5098V15.5098ZM15.3268 12.0822C17.6059 9.67647 18.7598 6.89446 18.7598 3.75488H17.7598C17.7598 6.62116 16.7164 9.16142 14.6009 11.3944L15.3268 12.0822ZM18.7598 3.75488V1.63086H17.7598V3.75488H18.7598ZM18.2598 1.13086H1.31641V2.13086H18.2598V1.13086ZM1.31641 1.13086C1.28362 1.13086 1.26724 1.12522 1.25838 1.12132C1.24835 1.11691 1.23131 1.10721 1.20609 1.08199L0.498986 1.7891C0.703405 1.99352 0.973165 2.13086 1.31641 2.13086V1.13086ZM1.20609 1.08199C1.1839 1.0598 1.17436 1.04185 1.16883 1.0269C1.16262 1.01014 1.15723 0.985198 1.15723 0.947266H0.157227C0.157227 1.22211 0.240241 1.53036 0.498986 1.7891L1.20609 1.08199ZM14.5244 18.2207C9.98834 18.2207 6.30122 20.1331 3.52551 23.9182L4.33191 24.5095C6.9273 20.9704 10.3203 19.2207 14.5244 19.2207V18.2207ZM3.92871 24.7139H23.1914V23.7139H3.92871V24.7139ZM23.1914 24.7139C23.2496 24.7139 23.2785 24.7215 23.2894 24.7255C23.294 24.7272 23.2949 24.7281 23.2941 24.7275C23.2931 24.7268 23.2935 24.7268 23.2956 24.7293L24.0638 24.0891C23.811 23.7857 23.4684 23.7139 23.1914 23.7139V24.7139ZM23.3261 24.7627C23.3703 24.8069 23.3851 24.8329 23.3905 24.8445C23.3944 24.8529 23.3994 24.8661 23.3994 24.8975H24.3994C24.3994 24.5423 24.2523 24.2747 24.0332 24.0556L23.3261 24.7627ZM23.3994 24.8975C23.3994 24.9241 23.3889 24.9528 23.3596 24.9772L23.9998 25.7454C24.2634 25.5257 24.3994 25.2126 24.3994 24.8975H23.3994ZM23.2956 25.0412C23.2776 25.0628 23.2532 25.0811 23.1914 25.0811V26.0811C23.5202 26.0811 23.8376 25.9529 24.0638 25.6814L23.2956 25.0412ZM23.1914 25.0811H3.0498V26.0811H23.1914V25.0811ZM2.61061 25.3421C1.67018 27.0704 1.13889 28.9733 1.01265 31.0438L2.01079 31.1047C2.12869 29.1712 2.62278 27.412 3.489 25.82L2.61061 25.3421ZM1.51172 31.5742H23.1914V30.5742H1.51172V31.5742ZM23.1914 31.5742C23.2583 31.5742 23.3008 31.5977 23.3261 31.6231L24.0332 30.916C23.8145 30.6972 23.5151 30.5742 23.1914 30.5742V31.5742ZM23.3261 31.6231C23.3703 31.6673 23.3851 31.6933 23.3905 31.7049C23.3944 31.7133 23.3994 31.7264 23.3994 31.7578H24.3994C24.3994 31.4026 24.2523 31.135 24.0332 30.916L23.3261 31.6231ZM23.3994 31.7578C23.3994 31.8196 23.3811 31.844 23.3596 31.862L23.9998 32.6302C24.2712 32.404 24.3994 32.0866 24.3994 31.7578H23.3994ZM23.3261 31.8925C23.3008 31.9179 23.2583 31.9414 23.1914 31.9414V32.9414C23.5151 32.9414 23.8145 32.8184 24.0332 32.5996L23.3261 31.8925ZM23.1914 31.9414H0.0957031V32.9414H23.1914V31.9414ZM0.595703 32.4414V31.7578H-0.404297V32.4414H0.595703ZM0.595703 31.7578C0.595703 29.255 1.20863 26.951 2.43046 24.8833L1.56954 24.3745C0.25231 26.6037 -0.404297 29.0848 -0.404297 31.7578H0.595703ZM2 24.6289C2.5 24.6289 2.5 24.6292 2.5 24.6294C2.5 24.6295 2.5 24.6297 2.5 24.6299C2.5 24.6302 2.5 24.6305 2.5 24.6309C2.49999 24.6315 2.49999 24.6322 2.49998 24.6329C2.49997 24.6342 2.49996 24.6355 2.49994 24.6369C2.49989 24.6396 2.49982 24.6424 2.49973 24.6453C2.49954 24.651 2.49923 24.6571 2.49878 24.6635C2.49788 24.6761 2.49631 24.6909 2.49358 24.7073C2.4885 24.7377 2.47742 24.786 2.45027 24.8403C2.42213 24.8966 2.37208 24.968 2.28765 25.0243C2.20009 25.0827 2.1058 25.1045 2.02441 25.1045V24.1045C1.93082 24.1045 1.82738 24.1293 1.73295 24.1923C1.64165 24.2531 1.58702 24.3307 1.55584 24.3931C1.52563 24.4535 1.51302 24.5079 1.50718 24.5429C1.50407 24.5616 1.50232 24.5783 1.50132 24.5922C1.50081 24.5993 1.50049 24.6059 1.50028 24.612C1.50018 24.615 1.50011 24.618 1.50007 24.6208C1.50004 24.6222 1.50003 24.6236 1.50002 24.6249C1.50001 24.6256 1.50001 24.6263 1.5 24.6269C1.5 24.6273 1.5 24.6276 1.5 24.6279C1.5 24.6281 1.5 24.6283 1.5 24.6284C1.5 24.6287 1.5 24.6289 2 24.6289ZM2.52441 24.6045V24.5801H1.52441V24.6045H2.52441ZM2.44913 24.8439C5.36819 20.145 9.38851 17.8291 14.5244 17.8291V16.8291C9.01578 16.8291 4.6865 19.3472 1.59969 24.3162L2.44913 24.8439ZM14.5244 17.8291H23.1914V16.8291H14.5244V17.8291ZM23.1914 17.8291C23.2532 17.8291 23.2776 17.8474 23.2956 17.8689L24.0638 17.2287C23.8376 16.9573 23.5202 16.8291 23.1914 16.8291V17.8291ZM23.3596 17.9329C23.3889 17.9574 23.3994 17.986 23.3994 18.0127H24.3994C24.3994 17.6976 24.2634 17.3844 23.9998 17.1647L23.3596 17.9329ZM23.3994 18.0127C23.3994 18.0745 23.3811 18.0989 23.3596 18.1169L23.9998 18.8851C24.2712 18.6589 24.3994 18.3415 24.3994 18.0127H23.3994ZM23.2956 18.1809C23.2776 18.2024 23.2532 18.2207 23.1914 18.2207V19.2207C23.5202 19.2207 23.8376 19.0925 24.0638 18.8211L23.2956 18.1809ZM23.1914 18.2207H14.5244V19.2207H23.1914V18.2207ZM49.1885 18.7939L48.6931 18.7264L48.6238 19.2343L49.1333 19.2909L49.1885 18.7939ZM57.4648 25.5078L57.9475 25.3772L57.9436 25.3629L57.9389 25.3488L57.4648 25.5078ZM59.6377 30.7568L59.2108 31.0173L59.2146 31.0232L59.6377 30.7568ZM60.0527 31.416L59.6295 31.6825L59.6367 31.6934L60.0527 31.416ZM60.1504 31.9287L60.6312 32.0661L60.6417 32.029L60.6465 31.9907L60.1504 31.9287ZM59.833 32.3438L60.0903 32.7725L60.1074 32.7622L60.1236 32.7506L59.833 32.3438ZM58.9053 32.124L58.4822 32.3904L58.4954 32.4114L58.5106 32.431L58.9053 32.124ZM58.4902 31.4648L58.0651 31.728L58.0671 31.7313L58.4902 31.4648ZM56.1709 25.874L56.654 25.7452L56.6498 25.7294L56.6446 25.7139L56.1709 25.874ZM48.9688 20.1367L49.0155 19.6389L48.5845 19.5984L48.4828 20.0192L48.9688 20.1367ZM42.4746 28.6572L42.7138 29.0963L42.7203 29.0927L42.4746 28.6572ZM35.6631 32.3682L35.8867 32.8154L35.8946 32.8114L35.9023 32.8072L35.6631 32.3682ZM34.7598 32.0752L34.3255 32.3233L34.331 32.3324L34.7598 32.0752ZM35.0283 31.1719L34.7903 30.732L34.7803 30.7378L35.0283 31.1719ZM41.8398 27.4854L42.0778 27.9251L42.0922 27.9173L42.106 27.9086L41.8398 27.4854ZM48.1387 16.7188L47.8186 16.3346L47.7837 16.3637L47.7546 16.3987L48.1387 16.7188ZM49.1152 16.7188L49.4993 16.3987L49.4702 16.3637L49.4353 16.3346L49.1152 16.7188ZM60.248 15.9131L60.5681 16.2972L60.6031 16.2681L60.6322 16.2332L60.248 15.9131ZM60.248 0.410156L60.6322 0.0900641L60.6031 0.0551449L60.5681 0.0260456L60.248 0.410156ZM35.8096 14.4482L36.1631 14.0947L36.1591 14.0907L35.8096 14.4482ZM37.1768 3.2666L37.5303 3.62016L37.5325 3.61798L37.1768 3.2666ZM52.1914 1.92383L51.8378 2.2774L51.8418 2.28133L52.1914 1.92383ZM50.8486 13.1055L51.2022 13.459L51.2043 13.4568L50.8486 13.1055ZM49.1333 19.2909C51.1427 19.5142 52.781 20.1621 54.0735 21.2115C55.3663 22.2612 56.3438 23.7374 56.9908 25.6668L57.9389 25.3488C57.2432 23.2743 56.1699 21.6255 54.7038 20.4352C53.2375 19.2446 51.409 18.5376 49.2437 18.297L49.1333 19.2909ZM56.9822 25.6384C57.5539 27.7513 58.3034 29.5299 59.2109 31.0173L60.0645 30.4964C59.2142 29.1029 58.4988 27.4147 57.9475 25.3772L56.9822 25.6384ZM59.2146 31.0232L59.6296 31.6824L60.4759 31.1496L60.0608 30.4904L59.2146 31.0232ZM59.6367 31.6934C59.6477 31.7098 59.669 31.7487 59.6543 31.8667L60.6465 31.9907C60.6806 31.7181 60.6531 31.4152 60.4688 31.1387L59.6367 31.6934ZM59.6696 31.7914C59.6598 31.8258 59.6478 31.8616 59.5424 31.9369L60.1236 32.7506C60.36 32.5817 60.5433 32.3734 60.6312 32.0661L59.6696 31.7914ZM59.5758 31.915C59.5449 31.9335 59.5314 31.9374 59.5283 31.9383C59.5258 31.939 59.5173 31.9414 59.4912 31.9414V32.9414C59.7044 32.9414 59.8909 32.8921 60.0903 32.7725L59.5758 31.915ZM59.4912 31.9414C59.4406 31.9414 59.4218 31.9325 59.4112 31.9267C59.3952 31.9179 59.359 31.893 59.2999 31.8171L58.5106 32.431C58.6224 32.5748 58.7571 32.7085 58.9304 32.8035C59.109 32.9015 59.2977 32.9414 59.4912 32.9414V31.9414ZM59.3284 31.8576L58.9134 31.1984L58.0671 31.7313L58.4822 32.3904L59.3284 31.8576ZM58.9154 31.2017C57.9934 29.7123 57.2297 27.9038 56.654 25.7452L55.6878 26.0029C56.284 28.2387 57.0828 30.1412 58.0651 31.728L58.9154 31.2017ZM56.6446 25.7139C56.0341 23.9081 55.0946 22.4719 53.8066 21.4429C52.5182 20.4135 50.9134 19.8172 49.0155 19.6389L48.922 20.6345C50.6618 20.798 52.0721 21.337 53.1824 22.2241C54.2931 23.1116 55.1358 24.3732 55.6972 26.0341L56.6446 25.7139ZM48.4828 20.0192C47.6127 23.6171 45.5286 26.3598 42.2289 28.2218L42.7203 29.0927C46.2565 27.0973 48.5182 24.127 49.4547 20.2542L48.4828 20.0192ZM42.2354 28.2182L35.4239 31.9291L35.9023 32.8072L42.7138 29.0963L42.2354 28.2182ZM35.4395 31.921C35.4117 31.9348 35.3907 31.9414 35.3457 31.9414V32.9414C35.5449 32.9414 35.7192 32.8991 35.8867 32.8154L35.4395 31.921ZM35.3457 31.9414C35.3092 31.9414 35.2624 31.9411 35.1885 31.8179L34.331 32.3324C34.5501 32.6976 34.894 32.9414 35.3457 32.9414V31.9414ZM35.1939 31.8271C35.1824 31.807 35.1799 31.7942 35.1791 31.7832C35.1782 31.7693 35.1792 31.7435 35.1917 31.6999L34.2302 31.4251C34.1547 31.6894 34.1446 32.0064 34.3256 32.3233L35.1939 31.8271ZM35.1917 31.6999C35.1999 31.6712 35.2078 31.6601 35.2125 31.6543C35.2181 31.6474 35.2338 31.6303 35.2764 31.606L34.7803 30.7378C34.5059 30.8945 34.3179 31.1182 34.2302 31.4251L35.1917 31.6999ZM35.2663 31.6116L42.0778 27.9251L41.6019 27.0456L34.7903 30.7321L35.2663 31.6116ZM42.106 27.9086C46.3082 25.2665 48.4434 21.6987 48.4434 17.207H47.4434C47.4434 21.3091 45.5258 24.5772 41.5737 27.0621L42.106 27.9086ZM48.4434 17.207C48.4434 17.1756 48.4485 17.1565 48.4557 17.1394C48.4644 17.119 48.4821 17.0876 48.5228 17.0388L47.7546 16.3987C47.5833 16.6041 47.4434 16.86 47.4434 17.207H48.4434ZM48.4588 17.1029C48.5076 17.0622 48.5389 17.0445 48.5593 17.0358C48.5764 17.0286 48.5955 17.0234 48.627 17.0234V16.0234C48.2799 16.0234 48.024 16.1634 47.8186 16.3346L48.4588 17.1029ZM48.627 17.0234C48.6584 17.0234 48.6775 17.0286 48.6946 17.0358C48.715 17.0445 48.7463 17.0622 48.7951 17.1029L49.4353 16.3346C49.2299 16.1634 48.974 16.0234 48.627 16.0234V17.0234ZM48.7311 17.0388C48.7718 17.0876 48.7895 17.119 48.7982 17.1394C48.8054 17.1565 48.8105 17.1756 48.8105 17.207H49.8105C49.8105 16.86 49.6706 16.6041 49.4993 16.3987L48.7311 17.0388ZM48.8105 17.207C48.8105 17.7134 48.7646 18.2019 48.6931 18.7264L49.6839 18.8615C49.7589 18.3118 49.8105 17.7748 49.8105 17.207H48.8105ZM59.9434 0.898438V15.4248H60.9434V0.898438H59.9434ZM59.9434 15.4248C59.9434 15.4562 59.9382 15.4754 59.931 15.4924C59.9223 15.5129 59.9046 15.5442 59.8639 15.593L60.6322 16.2332C60.8034 16.0277 60.9434 15.7718 60.9434 15.4248H59.9434ZM59.928 15.529C59.8791 15.5696 59.8478 15.5874 59.8274 15.596C59.8103 15.6033 59.7912 15.6084 59.7598 15.6084V16.6084C60.1068 16.6084 60.3627 16.4684 60.5681 16.2972L59.928 15.529ZM59.7598 15.6084C59.7269 15.6084 59.6816 15.5917 59.6495 15.5595L58.9423 16.2666C59.1543 16.4786 59.4509 16.6084 59.7598 16.6084V15.6084ZM59.6495 15.5595C59.6175 15.5275 59.6115 15.5118 59.61 15.5078C59.6076 15.5015 59.6006 15.4807 59.6006 15.4248H58.6006C58.6006 15.5642 58.618 15.7143 58.6766 15.8667C58.7361 16.0214 58.8278 16.1521 58.9423 16.2666L59.6495 15.5595ZM59.6006 15.4248V0.898438H58.6006V15.4248H59.6006ZM59.6006 0.898438C59.6006 0.842525 59.6076 0.821709 59.61 0.815476C59.6115 0.811461 59.6175 0.795697 59.6495 0.76371L58.9423 0.0566029C58.8278 0.1711 58.7361 0.30182 58.6766 0.456497C58.618 0.608955 58.6006 0.759038 58.6006 0.898438H59.6006ZM59.6495 0.76371C59.6816 0.731524 59.7269 0.714844 59.7598 0.714844V-0.285156C59.4509 -0.285156 59.1543 -0.155353 58.9423 0.0566029L59.6495 0.76371ZM59.7598 0.714844C59.7912 0.714844 59.8103 0.719991 59.8274 0.727207C59.8478 0.735859 59.8791 0.753595 59.928 0.794267L60.5681 0.0260456C60.3627 -0.145167 60.1068 -0.285156 59.7598 -0.285156V0.714844ZM59.8639 0.730248C59.9046 0.779055 59.9223 0.810357 59.931 0.830806C59.9382 0.847863 59.9434 0.867003 59.9434 0.898438H60.9434C60.9434 0.551424 60.8034 0.295519 60.6322 0.0900641L59.8639 0.730248ZM39.7646 15.6084C38.3635 15.6084 37.1711 15.1027 36.1631 14.0947L35.456 14.8018C36.6453 15.9911 38.0896 16.6084 39.7646 16.6084V15.6084ZM36.1591 14.0907C35.1605 13.1143 34.6738 11.9266 34.6738 10.4932H33.6738C33.6738 12.1848 34.2613 13.6337 35.46 14.8057L36.1591 14.0907ZM34.6738 10.4932C34.6738 7.81876 35.6217 5.52877 37.5303 3.62015L36.8232 2.91305C34.7279 5.00834 33.6738 7.55234 33.6738 10.4932H34.6738ZM37.5325 3.61798C39.4154 1.71181 41.704 0.763672 44.3789 0.763672V-0.236328C41.4386 -0.236328 38.8932 0.817487 36.821 2.91522L37.5325 3.61798ZM44.3789 0.763672H48.2363V-0.236328H44.3789V0.763672ZM48.2363 0.763672C49.6375 0.763672 50.8299 1.26942 51.8379 2.27738L52.545 1.57027C51.3557 0.380973 49.9113 -0.236328 48.2363 -0.236328V0.763672ZM51.8418 2.28133C52.8396 3.25693 53.3271 4.46872 53.3271 5.87891H54.3271C54.3271 4.21292 53.7405 2.73917 52.541 1.56632L51.8418 2.28133ZM53.3271 5.87891C53.3271 8.55373 52.3789 10.8448 50.4929 12.7541L51.2043 13.4568C53.2734 11.3622 54.3271 8.81932 54.3271 5.87891H53.3271ZM50.4951 12.7519C48.5865 14.6605 46.2965 15.6084 43.6221 15.6084V16.6084C46.5629 16.6084 49.1069 15.5543 51.2022 13.459L50.4951 12.7519ZM43.6221 15.6084H39.7646V16.6084H43.6221V15.6084ZM44.3789 1.13086C41.8053 1.13086 39.6028 2.03771 37.7754 3.8652L38.4825 4.5723C40.1218 2.93299 42.0697 2.13086 44.3789 2.13086V1.13086ZM37.7754 3.8652C35.9494 5.69119 35.0166 7.9175 35.0166 10.4932H36.0166C36.0166 8.18602 36.8417 6.21311 38.4825 4.5723L37.7754 3.8652ZM35.0166 10.4932C35.0166 11.7979 35.4845 12.926 36.4082 13.8496L37.1153 13.1425C36.3788 12.406 36.0166 11.5322 36.0166 10.4932H35.0166ZM36.4082 13.8496C37.3318 14.7733 38.4599 15.2412 39.7646 15.2412V14.2412C38.7256 14.2412 37.8518 13.879 37.1153 13.1425L36.4082 13.8496ZM39.7646 15.2412H43.6221V14.2412H39.7646V15.2412ZM43.6221 15.2412C46.1941 15.2412 48.4215 14.3354 50.25 12.5069L49.5429 11.7998C47.9047 13.438 45.9328 14.2412 43.6221 14.2412V15.2412ZM50.25 12.5069C52.0786 10.6783 52.9844 8.45098 52.9844 5.87891H51.9844C51.9844 8.18964 51.1812 10.1615 49.5429 11.7998L50.25 12.5069ZM52.9844 5.87891C52.9844 4.57416 52.5165 3.44609 51.5928 2.52242L50.8857 3.22953C51.6222 3.96602 51.9844 4.8399 51.9844 5.87891H52.9844ZM51.5928 2.52242C50.6691 1.59876 49.5411 1.13086 48.2363 1.13086V2.13086C49.2753 2.13086 50.1492 2.49304 50.8857 3.22953L51.5928 2.52242ZM48.2363 1.13086H44.3789V2.13086H48.2363V1.13086Z" fill="#F85454" mask="url(#path-1-outside-1_26_99)"/>
</svg>
